<?xml version="1.0" standalone="no"?>
<!DOCTYPE svg PUBLIC "-//W3C//DTD SVG 20010904//EN"
 "http://www.w3.org/TR/2001/REC-SVG-20010904/DTD/svg10.dtd">
<svg version="1.0" xmlns="http://www.w3.org/2000/svg"
 width="500.000000pt" height="500.000000pt" viewBox="0 0 500.000000 500.000000"
 preserveAspectRatio="xMidYMid meet">

<g transform="translate(0.000000,500.000000) scale(0.100000,-0.100000)"
fill="#000000" stroke="none">
<path d="M2381 3875 c0 -11 8 -93 18 -182 17 -143 24 -170 55 -235 19 -40 51
-125 71 -188 20 -63 39 -122 43 -130 4 -8 8 57 10 145 l3 160 145 110 c79 60
148 111 154 113 5 2 10 8 10 13 0 5 -17 -1 -37 -14 -75 -46 -166 -80 -227 -84
-104 -7 -129 19 -207 217 -21 52 -38 86 -38 75z"/>
<path d="M3160 3421 c-174 -79 -185 -86 -254 -150 -33 -31 -106 -88 -161 -125
-157 -108 -156 -110 30 -50 77 24 145 44 153 44 11 0 65 -35 256 -167 33 -24
65 -43 70 -43 5 0 -24 34 -66 75 -115 114 -145 202 -95 275 21 32 127 129 192
177 49 37 8 24 -125 -36z"/>
<path d="M2637 3429 c-66 -38 -19 -139 64 -139 26 0 69 44 69 70 0 12 -13 35
-29 51 -31 30 -71 37 -104 18z"/>
<path d="M2845 3085 c-73 -72 18 -190 96 -126 19 15 24 29 24 66 0 37 -5 51
-24 66 -32 26 -67 24 -96 -6z"/>
<path d="M2580 2976 c0 -3 35 -54 78 -112 42 -58 83 -113 90 -123 10 -15 3
-47 -43 -201 -31 -100 -54 -185 -51 -187 2 -2 20 29 39 69 39 81 103 160 148
183 59 31 127 9 273 -89 38 -26 71 -44 74 -41 6 5 -99 124 -192 218 -35 35
-90 77 -126 96 -36 19 -109 67 -163 108 -96 72 -127 92 -127 79z"/>
<path d="M2576 2779 c-20 -16 -26 -29 -26 -58 0 -41 19 -64 58 -74 61 -15 125
53 101 106 -22 48 -89 61 -133 26z"/>
<path d="M1900 1398 c-21 -46 -52 -116 -69 -155 l-30 -73 25 0 c19 0 28 8 40
35 l14 35 80 0 80 0 14 -35 c10 -24 22 -35 35 -35 12 0 21 5 21 10 0 12 -81
202 -110 260 -33 64 -54 55 -100 -42z m86 -33 c35 -81 34 -85 -32 -85 -49 0
-55 2 -49 18 4 9 16 41 27 70 12 28 23 52 25 52 2 0 15 -25 29 -55z"/>
<path d="M2165 1470 c-4 -6 -5 -75 -4 -155 3 -144 3 -145 26 -145 l23 0 0 155
c0 147 -1 155 -19 155 -11 0 -23 -5 -26 -10z"/>
<path d="M2350 1474 c-34 -14 -60 -48 -60 -79 0 -41 26 -64 99 -90 51 -18 56
-23 56 -50 0 -44 -46 -55 -110 -26 -38 17 -50 19 -57 9 -14 -22 -9 -28 35 -48
80 -37 165 -19 186 40 17 50 0 77 -66 106 -85 37 -88 39 -88 65 0 22 4 24 50
24 28 0 60 -4 71 -8 17 -6 23 -3 27 12 3 11 -1 25 -8 31 -16 13 -113 23 -135
14z"/>
<path d="M2572 1328 c3 -150 3 -153 26 -156 21 -3 22 0 22 62 l0 66 85 0 85 0
0 -66 c0 -62 1 -65 23 -62 22 3 22 5 22 153 0 148 0 150 -22 153 -22 3 -23 0
-23 -67 l0 -71 -85 0 -85 0 0 70 c0 68 -1 70 -25 70 l-26 0 3 -152z"/>
<path d="M3011 1462 c-9 -17 -65 -141 -112 -249 l-18 -43 24 0 c19 0 28 8 39
35 l15 35 80 0 81 0 14 -35 c12 -27 21 -35 40 -35 l25 0 -20 48 c-84 197 -115
257 -136 260 -13 2 -26 -4 -32 -16z m62 -114 c14 -31 23 -59 19 -62 -8 -9
-100 -7 -105 2 -7 11 46 133 54 125 4 -5 19 -34 32 -65z"/>
<path d="M843 984 c-9 -4 -8 -16 3 -47 26 -75 25 -75 44 -32 l18 40 7 -33 c10
-44 21 -48 34 -10 16 44 12 70 -4 28 l-12 -35 -8 38 c-10 53 -22 55 -35 5 -10
-34 -14 -39 -21 -25 -6 9 -11 30 -12 47 -1 16 -2 30 -2 29 0 0 -5 -3 -12 -5z"/>
<path d="M955 980 c3 -5 8 -10 11 -10 2 0 4 5 4 10 0 6 -5 10 -11 10 -5 0 -7
-4 -4 -10z"/>
<path d="M1056 974 c-23 -22 -21 -81 3 -94 43 -22 81 1 81 49 0 50 -52 78 -84
45z m58 -10 c19 -18 19 -24 6 -58 -12 -33 -47 -34 -61 -3 -7 15 -7 31 0 50 12
30 32 35 55 11z"/>
<path d="M1205 930 c0 -53 2 -60 20 -60 11 0 15 4 10 8 -13 9 -20 82 -8 82 5
0 15 -16 22 -36 14 -39 20 -38 38 9 13 32 13 32 10 -15 -2 -45 -1 -48 23 -47
14 0 19 3 13 6 -8 3 -13 25 -13 59 0 63 -14 70 -37 17 l-16 -38 -15 38 c-9 21
-21 37 -31 37 -13 0 -16 -11 -16 -60z"/>
<path d="M1406 944 c3 -27 0 -52 -7 -60 -10 -12 -3 -14 40 -14 47 0 51 2 50
23 -1 16 -2 18 -6 5 -3 -12 -14 -18 -35 -18 l-30 0 4 55 c2 37 -1 55 -9 55 -7
0 -10 -16 -7 -46z"/>
<path d="M1477 969 c4 -13 8 -18 11 -10 2 7 -1 18 -6 23 -8 8 -9 4 -5 -13z"/>
<path d="M1560 936 c0 -34 -5 -56 -12 -59 -7 -3 1 -6 17 -6 20 0 26 2 17 8 -8
5 -12 23 -10 47 l3 39 30 -47 c16 -27 33 -48 37 -48 5 0 7 28 6 63 l-1 62 -6
-50 -6 -50 -28 48 c-16 26 -33 47 -38 47 -5 0 -9 -24 -9 -54z"/>
<path d="M1823 983 c-27 -10 -14 -44 23 -59 41 -17 41 -37 0 -42 -17 -2 -26 0
-22 7 4 5 1 13 -5 16 -7 5 -10 0 -7 -11 2 -14 12 -19 38 -19 29 0 36 4 38 23
3 18 -4 26 -33 38 -39 16 -42 37 -7 42 15 2 22 -2 22 -12 0 -9 5 -16 10 -16
14 0 13 13 -2 28 -12 12 -33 14 -55 5z"/>
<path d="M2039 939 c2 -36 -1 -54 -10 -60 -10 -6 -7 -9 11 -9 24 0 25 2 22 54
-3 46 -1 55 15 59 11 3 7 5 -12 6 l-30 1 4 -51z"/>
<path d="M2195 930 c0 -58 1 -60 25 -59 14 0 19 3 13 6 -8 3 -13 25 -13 59 0
37 -4 54 -12 54 -9 0 -13 -19 -13 -60z"/>
<path d="M2308 979 c-28 -16 -21 -39 17 -55 44 -18 47 -44 5 -44 -22 0 -28 4
-24 15 4 8 1 15 -6 15 -6 0 -10 -8 -8 -17 2 -12 14 -19 34 -21 59 -6 70 51 13
63 -21 5 -29 12 -27 23 4 22 38 29 38 8 0 -9 5 -16 10 -16 16 0 11 27 -6 34
-21 8 -26 7 -46 -5z"/>
<path d="M2452 938 c-1 -34 -7 -58 -14 -61 -7 -3 11 -6 40 -6 48 -1 52 1 51
22 -1 16 -2 18 -6 5 -3 -12 -14 -18 -33 -18 -28 0 -29 2 -33 58 l-3 57 -2 -57z"/>
<path d="M2679 939 c2 -36 -1 -54 -10 -60 -10 -6 -5 -9 16 -9 20 0 26 3 17 9
-7 4 -12 19 -11 32 4 40 -1 79 -8 79 -5 0 -6 -23 -4 -51z"/>
<path d="M2727 983 c12 -2 24 -12 26 -21 3 -12 5 -10 6 6 1 18 -4 22 -26 21
-23 -1 -24 -2 -6 -6z"/>
<path d="M2835 976 c-39 -28 -14 -107 34 -105 11 0 8 3 -6 9 -25 10 -37 41
-28 71 4 11 16 24 28 29 14 6 17 9 6 9 -8 1 -24 -5 -34 -13z"/>
<path d="M2988 935 c4 -58 20 -73 62 -60 15 5 20 15 20 45 0 21 3 45 6 54 3 9
1 16 -4 16 -6 0 -12 -24 -14 -52 -3 -49 -5 -53 -28 -53 -23 0 -25 4 -28 53 -2
28 -6 52 -10 52 -4 0 -5 -25 -4 -55z"/>
<path d="M3167 984 c-4 -4 -7 -29 -7 -55 0 -28 -5 -49 -12 -52 -7 -3 -4 -6 7
-6 18 -1 20 4 17 47 -3 51 4 48 40 -18 10 -17 22 -29 28 -25 12 8 11 105 -2
105 -6 0 -7 -16 -3 -40 9 -53 -6 -51 -36 5 -14 25 -28 42 -32 39z"/>
<path d="M3329 938 c2 -35 -1 -53 -10 -59 -9 -6 -2 -9 21 -9 47 0 80 24 80 59
0 15 -5 32 -12 39 -20 20 -27 13 -14 -14 17 -32 10 -61 -16 -70 -11 -3 -21 -4
-23 -2 -8 8 -12 65 -5 83 6 16 4 21 -9 22 -13 1 -15 -7 -12 -49z"/>
<path d="M3644 975 c-3 -8 -4 -20 -1 -27 3 -7 6 -3 6 10 1 15 7 22 21 22 17 0
20 -7 20 -49 0 -30 -5 -51 -12 -54 -7 -3 1 -5 17 -5 17 0 24 2 18 5 -8 3 -13
25 -13 59 0 51 -1 54 -25 54 -14 0 -28 -7 -31 -15z"/>
<path d="M3725 980 c3 -5 8 -10 11 -10 2 0 4 5 4 10 0 6 -5 10 -11 10 -5 0 -7
-4 -4 -10z"/>
<path d="M3810 936 c0 -34 -5 -56 -12 -59 -7 -3 -2 -6 12 -6 24 -1 25 1 25 59
0 41 -4 60 -12 60 -9 0 -13 -17 -13 -54z"/>
<path d="M4078 938 c3 -36 1 -53 -9 -59 -11 -7 -9 -9 6 -9 18 0 20 6 17 52
l-2 53 26 -50 c32 -61 30 -59 44 -50 8 5 5 13 -9 26 -11 11 -27 32 -36 48 -8
16 -20 31 -28 34 -11 4 -13 -5 -9 -45z"/>
<path d="M4155 980 c-3 -5 -1 -10 4 -10 6 0 11 5 11 10 0 6 -2 10 -4 10 -3 0
-8 -4 -11 -10z"/>
<path d="M2100 962 c0 -11 -8 -26 -17 -31 -10 -6 -13 -11 -7 -11 7 0 15 -12
18 -26 7 -28 36 -30 43 -4 4 13 3 13 -6 0 -15 -22 -32 28 -17 52 8 13 7 21 -2
30 -9 9 -12 7 -12 -10z"/>
<path d="M2521 964 c0 -11 3 -14 6 -6 3 7 2 16 -1 19 -3 4 -6 -2 -5 -13z"/>
<path d="M2895 930 c0 -37 3 -46 13 -38 16 13 16 63 -1 76 -9 8 -12 0 -12 -38z"/>
<path d="M3516 964 c-9 -24 -7 -31 4 -14 9 13 11 13 20 0 16 -24 12 -33 -13
-28 -18 3 -28 -2 -40 -24 -15 -26 -15 -28 3 -28 13 0 17 5 13 20 -5 17 0 20
27 20 27 0 32 -3 27 -20 -4 -16 0 -20 21 -20 16 0 22 3 15 8 -6 4 -21 29 -32
55 -21 49 -35 58 -45 31z"/>
<path d="M3912 968 c-17 -17 -15 -64 4 -82 18 -19 38 -20 65 -6 24 13 27 85 4
93 -12 5 -12 2 -3 -18 15 -33 -3 -75 -32 -75 -26 0 -40 35 -29 72 9 32 8 33
-9 16z"/>
<path d="M4156 945 c4 -8 8 -15 10 -15 2 0 4 7 4 15 0 8 -4 15 -10 15 -5 0 -7
-7 -4 -15z"/>
<path d="M1451 924 c0 -11 3 -14 6 -6 3 7 2 16 -1 19 -3 4 -6 -2 -5 -13z"/>
<path d="M2491 924 c0 -11 3 -14 6 -6 3 7 2 16 -1 19 -3 4 -6 -2 -5 -13z"/>
<path d="M1368 443 c16 -6 16 -115 0 -131 -9 -9 -6 -12 17 -12 23 0 26 3 17
12 -7 7 -12 22 -12 35 0 20 5 23 39 23 43 0 53 -12 40 -47 -8 -20 -5 -23 19
-22 15 0 21 3 15 6 -9 3 -13 27 -13 68 0 41 4 65 13 68 6 3 1 6 -13 6 -24 1
-26 -2 -22 -34 4 -35 4 -35 -37 -35 -39 0 -41 2 -41 29 0 16 6 32 13 34 6 3
-1 5 -18 5 -16 0 -24 -2 -17 -5z"/>
<path d="M1561 433 c-11 -10 -24 -32 -27 -50 -5 -26 -1 -37 19 -57 49 -49 121
-21 121 47 0 67 -64 100 -113 60z m81 -10 c38 -35 14 -105 -37 -105 -50 0 -74
65 -38 104 20 22 51 23 75 1z"/>
<path d="M1708 443 c16 -6 16 -115 0 -131 -9 -9 -7 -12 13 -12 23 0 24 2 22
57 l-3 58 21 -47 c12 -27 25 -48 29 -48 4 0 13 18 20 41 8 22 17 42 22 45 13
8 9 -81 -4 -94 -9 -9 -6 -12 14 -12 25 0 25 1 15 46 -8 32 -8 54 0 75 10 25 9
29 -7 29 -13 0 -23 -15 -36 -50 -10 -27 -21 -50 -25 -50 -3 0 -16 23 -27 50
-17 40 -25 50 -44 49 -13 0 -17 -3 -10 -6z"/>
<path d="M1908 438 c7 -7 12 -35 12 -63 0 -28 -5 -56 -12 -63 -9 -9 1 -12 45
-12 52 0 57 2 57 22 0 20 -1 21 -13 4 -20 -28 -61 -18 -65 16 -3 23 1 27 30
31 l33 4 -32 1 c-30 2 -33 5 -33 32 0 27 3 30 34 30 19 0 37 -6 39 -12 3 -8 6
-6 6 5 1 14 -8 17 -56 17 -44 0 -54 -3 -45 -12z"/>
<path d="M2132 434 c-16 -11 -22 -25 -22 -54 0 -74 77 -108 119 -54 12 15 21
35 21 46 0 22 -18 60 -34 70 -19 13 -60 9 -84 -8z m82 -10 c25 -24 21 -81 -8
-99 -59 -39 -117 44 -66 95 24 24 53 26 74 4z"/>
<path d="M2290 413 c3 -21 3 -55 -1 -75 -6 -36 -5 -38 20 -37 14 0 20 3 14 6
-7 2 -13 17 -13 33 0 24 5 29 28 33 l27 4 -27 2 c-24 1 -28 5 -28 31 0 26 3
30 29 30 16 0 31 -6 34 -12 2 -7 8 -10 12 -6 16 15 -9 28 -54 28 l-48 0 7 -37z"/>
<path d="M2490 385 c3 -37 1 -70 -4 -75 -7 -7 10 -10 47 -10 53 0 57 2 56 23
-1 16 -2 18 -6 5 -3 -13 -15 -18 -39 -18 l-34 0 0 64 c0 42 4 66 13 69 6 3 1
6 -13 6 -25 1 -25 0 -20 -64z"/>
<path d="M2628 443 c16 -6 16 -115 0 -131 -9 -9 -6 -12 17 -12 23 0 26 3 17
12 -16 16 -16 125 1 131 6 3 -1 5 -18 5 -16 0 -24 -2 -17 -5z"/>
<path d="M2710 396 c3 -30 2 -64 -2 -75 -6 -19 -4 -21 27 -21 43 0 63 8 75 30
7 14 6 23 -5 34 -12 12 -13 20 -5 35 14 28 -12 51 -59 51 l-37 0 6 -54z m75
14 c0 -20 -6 -26 -27 -28 -25 -3 -28 0 -28 28 0 28 3 31 28 28 21 -2 27 -8 27
-28z m12 -56 c7 -19 -21 -44 -49 -44 -13 0 -18 8 -18 30 0 27 3 30 30 30 19 0
33 -6 37 -16z"/>
<path d="M2848 443 c8 -3 12 -27 12 -68 0 -41 -4 -65 -12 -68 -7 -3 15 -6 50
-6 58 -1 62 0 62 22 -1 20 -2 21 -14 5 -7 -10 -25 -18 -40 -18 -22 0 -26 4
-26 29 0 25 5 30 28 34 l27 4 -27 2 c-24 1 -28 5 -28 31 0 27 3 30 30 30 17 0
30 -4 30 -10 0 -5 5 -10 10 -10 6 0 10 7 10 15 0 12 -13 15 -62 14 -35 0 -57
-3 -50 -6z"/>
<path d="M2988 443 c16 -6 16 -115 0 -131 -9 -9 -6 -12 17 -12 23 0 26 3 17
12 -21 21 -14 48 12 48 17 0 27 -9 36 -30 7 -16 19 -30 27 -30 10 0 8 8 -9 30
-17 23 -19 33 -10 42 17 17 15 65 -4 72 -9 3 -34 6 -57 5 -23 0 -36 -3 -29 -6z
m76 -9 c25 -10 19 -43 -10 -54 -33 -13 -44 -6 -44 31 0 30 17 37 54 23z"/>
<path d="M3130 435 c0 -8 5 -15 10 -15 6 0 10 5 10 10 0 6 9 10 20 10 18 0 20
-7 20 -64 0 -42 -4 -66 -12 -69 -7 -3 0 -6 16 -6 21 -1 26 2 19 12 -6 6 -10
37 -9 67 1 45 4 55 20 58 10 2 22 -2 27 -10 7 -10 9 -9 9 5 0 14 -10 17 -65
17 -51 0 -65 -3 -65 -15z"/>
<path d="M3296 442 c19 -12 54 -76 54 -98 0 -11 -5 -25 -12 -32 -9 -9 -6 -12
17 -12 23 0 26 3 17 12 -7 7 -12 20 -12 29 0 20 38 90 55 101 5 4 0 8 -12 8
-15 0 -21 -5 -17 -13 3 -8 -4 -24 -14 -37 l-19 -24 -17 31 c-12 24 -13 33 -3
36 6 3 -1 6 -18 6 -16 0 -25 -3 -19 -7z"/>
</g>
</svg>
